<svg xmlns="http://www.w3.org/2000/svg" xmlns:xlink="http://www.w3.org/1999/xlink" width="135" zoomAndPan="magnify" viewBox="0 0 101.25 60.749998" height="81" preserveAspectRatio="xMidYMid meet" version="1.0"><defs><clipPath id="6513770ffd"><path d="M 66.933594 0.0976562 L 100.433594 0.0976562 L 100.433594 36.578125 L 66.933594 36.578125 Z M 66.933594 0.0976562 " clip-rule="nonzero"/></clipPath><clipPath id="bf9d4669b7"><path d="M 0 12.804688 L 100.503906 12.804688 L 100.503906 59.707031 L 0 59.707031 Z M 0 12.804688 " clip-rule="nonzero"/></clipPath></defs><g clip-path="url(#6513770ffd)"><path fill="#ffe600" d="M 110.628906 14.691406 C 110.628906 15.40625 110.59375 16.125 110.523438 16.835938 C 110.457031 17.550781 110.351562 18.257812 110.210938 18.960938 C 110.070312 19.664062 109.898438 20.359375 109.691406 21.042969 C 109.480469 21.730469 109.242188 22.40625 108.96875 23.066406 C 108.695312 23.730469 108.386719 24.375 108.050781 25.007812 C 107.714844 25.640625 107.347656 26.253906 106.949219 26.851562 C 106.550781 27.449219 106.125 28.023438 105.671875 28.578125 C 105.21875 29.128906 104.738281 29.660156 104.230469 30.167969 C 103.726562 30.675781 103.195312 31.15625 102.640625 31.609375 C 102.089844 32.066406 101.515625 32.492188 100.921875 32.890625 C 100.324219 33.289062 99.710938 33.65625 99.082031 33.996094 C 98.449219 34.332031 97.804688 34.636719 97.144531 34.914062 C 96.480469 35.1875 95.808594 35.429688 95.125 35.636719 C 94.4375 35.84375 93.746094 36.019531 93.042969 36.160156 C 92.34375 36.296875 91.636719 36.402344 90.921875 36.472656 C 90.210938 36.542969 89.496094 36.578125 88.78125 36.578125 C 88.066406 36.578125 87.351562 36.542969 86.640625 36.472656 C 85.929688 36.402344 85.222656 36.296875 84.519531 36.160156 C 83.816406 36.019531 83.125 35.84375 82.4375 35.636719 C 81.753906 35.429688 81.082031 35.1875 80.421875 34.914062 C 79.757812 34.636719 79.113281 34.332031 78.480469 33.996094 C 77.851562 33.65625 77.238281 33.289062 76.644531 32.890625 C 76.046875 32.492188 75.472656 32.066406 74.921875 31.609375 C 74.367188 31.15625 73.839844 30.675781 73.332031 30.167969 C 72.828125 29.660156 72.347656 29.128906 71.890625 28.578125 C 71.4375 28.023438 71.011719 27.449219 70.613281 26.851562 C 70.21875 26.253906 69.851562 25.640625 69.511719 25.007812 C 69.175781 24.375 68.871094 23.730469 68.597656 23.066406 C 68.324219 22.40625 68.082031 21.730469 67.875 21.042969 C 67.667969 20.359375 67.492188 19.664062 67.351562 18.960938 C 67.214844 18.257812 67.109375 17.550781 67.039062 16.835938 C 66.96875 16.125 66.933594 15.40625 66.933594 14.691406 C 66.933594 13.972656 66.96875 13.257812 67.039062 12.546875 C 67.109375 11.832031 67.214844 11.125 67.351562 10.421875 C 67.492188 9.71875 67.667969 9.023438 67.875 8.335938 C 68.082031 7.652344 68.324219 6.976562 68.597656 6.316406 C 68.871094 5.652344 69.175781 5.003906 69.511719 4.375 C 69.851562 3.742188 70.21875 3.128906 70.613281 2.53125 C 71.011719 1.933594 71.4375 1.359375 71.890625 0.804688 C 72.347656 0.25 72.828125 -0.277344 73.332031 -0.785156 C 73.839844 -1.292969 74.367188 -1.773438 74.921875 -2.226562 C 75.472656 -2.683594 76.046875 -3.109375 76.644531 -3.507812 C 77.238281 -3.90625 77.851562 -4.273438 78.480469 -4.613281 C 79.113281 -4.949219 79.757812 -5.257812 80.421875 -5.53125 C 81.082031 -5.804688 81.753906 -6.046875 82.4375 -6.253906 C 83.125 -6.460938 83.816406 -6.636719 84.519531 -6.777344 C 85.222656 -6.914062 85.929688 -7.019531 86.640625 -7.089844 C 87.351562 -7.160156 88.066406 -7.195312 88.78125 -7.195312 C 89.496094 -7.195312 90.210938 -7.160156 90.921875 -7.089844 C 91.636719 -7.019531 92.34375 -6.914062 93.042969 -6.777344 C 93.746094 -6.636719 94.4375 -6.460938 95.125 -6.253906 C 95.808594 -6.046875 96.480469 -5.804688 97.144531 -5.53125 C 97.804688 -5.257812 98.449219 -4.949219 99.082031 -4.613281 C 99.710938 -4.273438 100.324219 -3.90625 100.921875 -3.507812 C 101.515625 -3.109375 102.089844 -2.683594 102.640625 -2.226562 C 103.195312 -1.773438 103.726562 -1.292969 104.230469 -0.785156 C 104.738281 -0.277344 105.21875 0.25 105.671875 0.804688 C 106.125 1.359375 106.550781 1.933594 106.949219 2.53125 C 107.347656 3.128906 107.714844 3.742188 108.050781 4.375 C 108.386719 5.003906 108.695312 5.652344 108.96875 6.316406 C 109.242188 6.976562 109.480469 7.652344 109.691406 8.335938 C 109.898438 9.023438 110.070312 9.71875 110.210938 10.421875 C 110.351562 11.125 110.457031 11.832031 110.523438 12.546875 C 110.59375 13.257812 110.628906 13.972656 110.628906 14.691406 Z M 110.628906 14.691406 " fill-opacity="1" fill-rule="nonzero"/></g><g clip-path="url(#bf9d4669b7)"><path fill="#ffffff" d="M 18.414062 40.953125 C 20.699219 25.039062 34.453125 12.804688 51.078125 12.804688 C 61.914062 12.804688 71.527344 18 77.542969 26.019531 C 80.140625 25.191406 82.914062 24.742188 85.789062 24.742188 C 100.699219 24.742188 112.789062 36.769531 112.789062 51.605469 C 112.789062 66.441406 100.699219 78.46875 85.789062 78.46875 L 16.367188 78.46875 L 16.367188 78.296875 C 7.171875 77.046875 0.0820312 69.199219 0.0820312 59.707031 C 0.0820312 49.519531 8.242188 41.230469 18.414062 40.953125 Z M 18.414062 40.953125 " fill-opacity="1" fill-rule="evenodd"/></g></svg>