<svg xmlns="http://www.w3.org/2000/svg" xmlns:xlink="http://www.w3.org/1999/xlink" width="151" zoomAndPan="magnify" viewBox="0 0 113.25 61.499998" height="82" preserveAspectRatio="xMidYMid meet" version="1.0"><defs><clipPath id="0280b12692"><path d="M 76.8125 0 L 112.421875 0 L 112.421875 38.683594 L 76.8125 38.683594 Z M 76.8125 0 " clip-rule="nonzero"/></clipPath><clipPath id="cc1a0a2370"><path d="M 0.0859375 8.175781 L 112.421875 8.175781 L 112.421875 60.996094 L 0.0859375 60.996094 Z M 0.0859375 8.175781 " clip-rule="nonzero"/></clipPath></defs><g clip-path="url(#0280b12692)"><path fill="#fff8ba" d="M 123.390625 15.472656 C 123.390625 16.234375 123.351562 16.992188 123.277344 17.75 C 123.203125 18.507812 123.089844 19.257812 122.941406 20.003906 C 122.792969 20.746094 122.609375 21.484375 122.386719 22.210938 C 122.164062 22.9375 121.910156 23.652344 121.617188 24.355469 C 121.324219 25.058594 121 25.746094 120.640625 26.414062 C 120.28125 27.085938 119.886719 27.738281 119.464844 28.371094 C 119.039062 29 118.585938 29.609375 118.101562 30.199219 C 117.617188 30.785156 117.105469 31.347656 116.566406 31.886719 C 116.027344 32.425781 115.464844 32.933594 114.875 33.417969 C 114.285156 33.898438 113.671875 34.351562 113.039062 34.773438 C 112.40625 35.195312 111.75 35.585938 111.078125 35.945312 C 110.40625 36.300781 109.71875 36.625 109.011719 36.917969 C 108.308594 37.207031 107.589844 37.464844 106.859375 37.683594 C 106.128906 37.90625 105.390625 38.089844 104.644531 38.238281 C 103.894531 38.386719 103.140625 38.5 102.382812 38.574219 C 101.625 38.648438 100.863281 38.683594 100.101562 38.683594 C 99.335938 38.683594 98.578125 38.648438 97.816406 38.574219 C 97.058594 38.5 96.304688 38.386719 95.558594 38.238281 C 94.808594 38.089844 94.070312 37.90625 93.339844 37.683594 C 92.609375 37.464844 91.890625 37.207031 91.1875 36.917969 C 90.484375 36.625 89.792969 36.300781 89.121094 35.945312 C 88.449219 35.585938 87.796875 35.195312 87.160156 34.773438 C 86.527344 34.351562 85.914062 33.898438 85.324219 33.417969 C 84.734375 32.933594 84.171875 32.425781 83.632812 31.886719 C 83.09375 31.347656 82.582031 30.785156 82.097656 30.199219 C 81.613281 29.609375 81.160156 29 80.734375 28.371094 C 80.3125 27.738281 79.921875 27.085938 79.5625 26.414062 C 79.203125 25.746094 78.875 25.058594 78.585938 24.355469 C 78.292969 23.652344 78.035156 22.9375 77.8125 22.210938 C 77.59375 21.484375 77.40625 20.746094 77.257812 20.003906 C 77.109375 19.257812 77 18.507812 76.921875 17.75 C 76.847656 16.992188 76.8125 16.234375 76.8125 15.472656 C 76.8125 14.714844 76.847656 13.957031 76.921875 13.199219 C 77 12.441406 77.109375 11.691406 77.257812 10.945312 C 77.40625 10.199219 77.59375 9.464844 77.8125 8.738281 C 78.035156 8.007812 78.292969 7.292969 78.585938 6.59375 C 78.875 5.890625 79.203125 5.203125 79.5625 4.535156 C 79.921875 3.863281 80.3125 3.210938 80.734375 2.578125 C 81.160156 1.949219 81.613281 1.335938 82.097656 0.75 C 82.582031 0.164062 83.09375 -0.398438 83.632812 -0.9375 C 84.171875 -1.476562 84.734375 -1.984375 85.324219 -2.46875 C 85.914062 -2.949219 86.527344 -3.402344 87.160156 -3.824219 C 87.796875 -4.246094 88.449219 -4.636719 89.121094 -4.996094 C 89.792969 -5.351562 90.484375 -5.679688 91.1875 -5.96875 C 91.890625 -6.261719 92.609375 -6.515625 93.339844 -6.734375 C 94.070312 -6.957031 94.808594 -7.140625 95.558594 -7.289062 C 96.304688 -7.4375 97.058594 -7.550781 97.816406 -7.625 C 98.578125 -7.699219 99.335938 -7.734375 100.101562 -7.734375 C 100.863281 -7.734375 101.625 -7.699219 102.382812 -7.625 C 103.140625 -7.550781 103.894531 -7.4375 104.644531 -7.289062 C 105.390625 -7.140625 106.128906 -6.957031 106.859375 -6.734375 C 107.589844 -6.515625 108.308594 -6.261719 109.011719 -5.96875 C 109.71875 -5.679688 110.40625 -5.351562 111.078125 -4.996094 C 111.75 -4.636719 112.40625 -4.246094 113.039062 -3.824219 C 113.671875 -3.402344 114.285156 -2.949219 114.875 -2.46875 C 115.464844 -1.984375 116.027344 -1.476562 116.566406 -0.9375 C 117.105469 -0.398438 117.617188 0.164062 118.101562 0.75 C 118.585938 1.335938 119.039062 1.949219 119.464844 2.578125 C 119.886719 3.210938 120.28125 3.863281 120.640625 4.535156 C 121 5.203125 121.324219 5.890625 121.617188 6.59375 C 121.910156 7.292969 122.164062 8.007812 122.386719 8.738281 C 122.609375 9.464844 122.792969 10.199219 122.941406 10.945312 C 123.089844 11.691406 123.203125 12.441406 123.277344 13.199219 C 123.351562 13.957031 123.390625 14.714844 123.390625 15.472656 Z M 123.390625 15.472656 " fill-opacity="1" fill-rule="nonzero"/></g><g clip-path="url(#cc1a0a2370)"><path fill="#1f4f72" d="M 20.609375 39.875 C 23.167969 21.953125 38.566406 8.175781 57.179688 8.175781 C 69.304688 8.175781 80.066406 14.027344 86.804688 23.058594 C 89.714844 22.125 92.816406 21.621094 96.039062 21.621094 C 112.730469 21.621094 126.261719 35.164062 126.261719 51.875 C 126.261719 68.582031 112.730469 82.125 96.039062 82.125 L 18.320312 82.125 L 18.320312 81.929688 C 8.023438 80.523438 0.0898438 71.6875 0.0898438 60.996094 C 0.0898438 49.523438 9.222656 40.1875 20.609375 39.875 Z M 20.609375 39.875 " fill-opacity="1" fill-rule="evenodd"/></g></svg>